{
  "source": "C:\\Users\\Peter\\Desktop\\stuff\\MIUN\\quantitative_research\\video_compression\\videos\\BVI-HD\\BVI-HD_CDVL_videos\\ORIG\\ParkPlay_1920x1080_50fps.mp4",
  "output": "C:\\Users\\Peter\\Desktop\\stuff\\MIUN\\quantitative_research\\video_compression\\compressed_videos\\BVI-HD\\av1\\2\\ParkPlay_1920x1080_50fps_av1.mkv",
  "codec": "av1",
  "ok": "Input #0, mov,mp4,m4a,3gp,3g2,mj2, from 'C:\\Users\\Peter\\Desktop\\stuff\\MIUN\\quantitative_research\\video_compression\\videos\\BVI-HD\\BVI-HD_CDVL_videos\\ORIG\\ParkPlay_1920x1080_50fps.mp4':\n  Metadata:\n    major_brand     : isom\n    minor_version   : 512\n    compatible_brands: isomiso2avc1mp41\n    encoder         : Lavf54.28.101\n  Duration: 00:00:05.00, start: 0.000000, bitrate: 620563 kb/s\n  Stream #0:0[0x1](und): Video: h264 (High 4:4:4 Predictive) (avc1 / 0x31637661), yuv420p(progressive), 1920x1080, 620558 kb/s, 50 fps, 50 tbr, 50 tbn (default)\n    Metadata:\n      handler_name    : VideoHandler\n      vendor_id       : [0][0][0][0]\n[out#0/matroska @ 000001772bd8f0c0] Codec AVOption b:a (set bitrate (in bits/s)) has not been used for any stream. The most likely reason is either wrong type (e.g. a video option with no video streams) or that it is a private option of some decoder which was not actually used for any stream.\nStream mapping:\n  Stream #0:0 -> #0:0 (h264 (native) -> av1 (libsvtav1))\nPress [q] to stop, [?] for help\nSvt[info]: -------------------------------------------\nSvt[info]: SVT [version]:\tSVT-AV1 Encoder Lib v3.1.0-19-g6ecfe8ec\nSvt[info]: SVT [build]  :\tGCC 15.2.0\t 64 bit\nSvt[info]: LIB Build date: Aug 17 2025 11:37:13\nSvt[info]: -------------------------------------------\nSvt[info]: Level of Parallelism: 5\nSvt[info]: Number of PPCS 93\nSvt[info]: [asm level on system : up to avx2]\nSvt[info]: [asm level selected : up to avx2]\nSvt[info]: -------------------------------------------\nSvt[info]: SVT [config]: main profile\ttier (auto)\tlevel (auto)\nSvt[info]: SVT [config]: width / height / fps numerator / fps denominator \t\t: 1920 / 1080 / 50 / 1\nSvt[info]: SVT [config]: bit-depth / color format \t\t\t\t\t: 8 / YUV420\nSvt[info]: SVT [config]: preset / tune / pred struct \t\t\t\t\t: 4 / PSNR / random access\nSvt[info]: SVT [config]: gop size / mini-gop size / key-frame type \t\t\t: 321 / 16 / key frame\nSvt[info]: SVT [config]: BRC mode / target bitrate (kbps)\t\t\t\t: VBR / 2000 \nSvt[info]: SVT [config]: AQ mode / Variance Boost \t\t\t\t\t: 2 / 0\nSvt[info]: SVT [config]: sharpness / luminance-based QP bias \t\t\t\t: 0 / 0\nSvt[info]: SVT [config]: QP scale compress strength \t\t\t\t\t: 0\nSvt[info]: -------------------------------------------\nOutput #0, matroska, to 'C:\\Users\\Peter\\Desktop\\stuff\\MIUN\\quantitative_research\\video_compression\\compressed_videos\\BVI-HD\\av1\\2\\ParkPlay_1920x1080_50fps_av1.mkv':\n  Metadata:\n    major_brand     : isom\n    minor_version   : 512\n    compatible_brands: isomiso2avc1mp41\n    encoder         : Lavf62.3.100\n  Stream #0:0(und): Video: av1 (AV01 / 0x31305641), yuv420p(tv, progressive), 1920x1080, q=2-31, 2000 kb/s, 50 fps, 1k tbn (default)\n    Metadata:\n      encoder         : Lavc62.11.100 libsvtav1\n      handler_name    : VideoHandler\n      vendor_id       : [0][0][0][0]\n    Side data:\n      cpb: bitrate max/min/avg: 0/0/2000000 buffer size: 2000000 vbv_delay: N/A\nframe=    0 fps=0.0 q=0.0 size=       0KiB time=N/A bitrate=N/A speed=N/A elapsed=0:00:01.10    \nframe=    0 fps=0.0 q=0.0 size=       0KiB time=N/A bitrate=N/A speed=N/A elapsed=0:00:01.66    \nframe=    0 fps=0.0 q=0.0 size=       0KiB time=N/A bitrate=N/A speed=N/A elapsed=0:00:02.25    \nframe=    0 fps=0.0 q=0.0 size=       0KiB time=N/A bitrate=N/A speed=N/A elapsed=0:00:02.80    \nframe=    0 fps=0.0 q=0.0 size=       0KiB time=N/A bitrate=N/A speed=N/A elapsed=0:00:03.44    \nframe=    0 fps=0.0 q=0.0 size=       0KiB time=N/A bitrate=N/A speed=N/A elapsed=0:00:04.09    \nframe=    0 fps=0.0 q=0.0 size=       0KiB time=N/A bitrate=N/A speed=N/A elapsed=0:00:04.69    \nframe=    0 fps=0.0 q=0.0 size=       0KiB time=N/A bitrate=N/A speed=N/A elapsed=0:00:05.25    \nframe=    1 fps=0.2 q=35.0 size=       1KiB time=00:00:00.00 bitrate=N/A speed=   0x elapsed=0:00:05.80    \nframe=    1 fps=0.2 q=35.0 size=       1KiB time=00:00:00.00 bitrate=N/A speed=   0x elapsed=0:00:06.34    \nframe=    1 fps=0.1 q=35.0 size=       1KiB time=00:00:00.00 bitrate=N/A speed=   0x elapsed=0:00:06.87    \nframe=    3 fps=0.4 q=52.0 size=       1KiB time=00:00:00.02 bitrate= 285.2kbits/s speed=0.00268x elapsed=0:00:07.45    \nframe=    6 fps=0.7 q=54.0 size=       1KiB time=00:00:00.10 bitrate=  57.0kbits/s speed=0.0125x elapsed=0:00:08.01    \nframe=    8 fps=0.9 q=52.0 size=       1KiB time=00:00:00.14 bitrate=  40.7kbits/s speed=0.0164x elapsed=0:00:08.56    \nframe=   10 fps=1.1 q=53.0 size=       1KiB time=00:00:00.18 bitrate=  31.7kbits/s speed=0.0196x elapsed=0:00:09.16    \nframe=   12 fps=1.2 q=52.0 size=       1KiB time=00:00:00.22 bitrate=  25.9kbits/s speed=0.0226x elapsed=0:00:09.71    \nframe=   17 fps=1.7 q=38.0 size=       1KiB time=00:00:00.30 bitrate=  19.0kbits/s speed=0.0292x elapsed=0:00:10.28    \nframe=   20 fps=1.8 q=50.0 size=       1KiB time=00:00:00.36 bitrate=  15.8kbits/s speed=0.0332x elapsed=0:00:10.85    \nframe=   22 fps=1.9 q=54.0 size=       1KiB time=00:00:00.42 bitrate=  13.6kbits/s speed=0.0368x elapsed=0:00:11.39    \nframe=   23 fps=1.9 q=51.0 size=       1KiB time=00:00:00.44 bitrate=  13.0kbits/s speed=0.0368x elapsed=0:00:11.95    \nframe=   27 fps=2.2 q=53.0 size=       1KiB time=00:00:00.52 bitrate=  11.0kbits/s speed=0.0415x elapsed=0:00:12.53    \nframe=   29 fps=2.2 q=50.0 size=       1KiB time=00:00:00.56 bitrate=  10.2kbits/s speed=0.0428x elapsed=0:00:13.09    \nframe=   33 fps=2.4 q=37.0 size=       1KiB time=00:00:00.64 bitrate=   8.9kbits/s speed=0.0468x elapsed=0:00:13.67    \nframe=   36 fps=2.5 q=55.0 size=       1KiB time=00:00:00.70 bitrate=   8.1kbits/s speed=0.0492x elapsed=0:00:14.22    \nframe=   38 fps=2.6 q=53.0 size=       1KiB time=00:00:00.74 bitrate=   7.7kbits/s speed=0.0501x elapsed=0:00:14.75    \nframe=   39 fps=2.5 q=50.0 size=       1KiB time=00:00:00.76 bitrate=   7.5kbits/s speed=0.0495x elapsed=0:00:15.34    \nframe=   43 fps=2.7 q=52.0 size=       1KiB time=00:00:00.84 bitrate=   6.8kbits/s speed=0.0528x elapsed=0:00:15.90    \nframe=   45 fps=2.7 q=49.0 size=       1KiB time=00:00:00.88 bitrate=   6.5kbits/s speed=0.0535x elapsed=0:00:16.46    \nframe=   48 fps=2.8 q=56.0 size=       1KiB time=00:00:00.94 bitrate=   6.1kbits/s speed=0.0552x elapsed=0:00:17.04    \nframe=   51 fps=2.9 q=54.0 size=       1KiB time=00:00:01.00 bitrate=   5.7kbits/s speed=0.0569x elapsed=0:00:17.57    \nframe=   54 fps=3.0 q=56.0 size=       1KiB time=00:00:01.06 bitrate=   5.4kbits/s speed=0.0585x elapsed=0:00:18.11    \nframe=   55 fps=2.9 q=51.0 size=       1KiB time=00:00:01.08 bitrate=   5.3kbits/s speed=0.0578x elapsed=0:00:18.68    \nframe=   59 fps=3.1 q=53.0 size=       1KiB time=00:00:01.16 bitrate=   4.9kbits/s speed=0.0602x elapsed=0:00:19.27    \nframe=   62 fps=3.1 q=58.0 size=       1KiB time=00:00:01.20 bitrate=   4.8kbits/s speed=0.0605x elapsed=0:00:19.83    \nframe=   65 fps=3.2 q=37.0 size=       1KiB time=00:00:01.28 bitrate=   4.5kbits/s speed=0.0628x elapsed=0:00:20.39    \nframe=   70 fps=3.3 q=58.0 size=       1KiB time=00:00:01.38 bitrate=   4.1kbits/s speed=0.0659x elapsed=0:00:20.92    \nframe=   71 fps=3.3 q=56.0 size=       1KiB time=00:00:01.40 bitrate=   4.1kbits/s speed=0.0651x elapsed=0:00:21.49    \nframe=   76 fps=3.4 q=58.0 size=       1KiB time=00:00:01.50 bitrate=   3.8kbits/s speed=0.068x elapsed=0:00:22.07    \nframe=   81 fps=3.6 q=39.0 size=       1KiB time=00:00:01.58 bitrate=   3.6kbits/s speed=0.0697x elapsed=0:00:22.67    \nframe=   85 fps=3.7 q=55.0 size=       1KiB time=00:00:01.68 bitrate=   3.4kbits/s speed=0.0722x elapsed=0:00:23.28    \nframe=   88 fps=3.7 q=59.0 size=       1KiB time=00:00:01.74 bitrate=   3.3kbits/s speed=0.073x elapsed=0:00:23.85    \nframe=   93 fps=3.8 q=55.0 size=       1KiB time=00:00:01.84 bitrate=   3.1kbits/s speed=0.0752x elapsed=0:00:24.45    \nframe=   97 fps=3.9 q=39.0 size=       1KiB time=00:00:01.92 bitrate=   3.0kbits/s speed=0.0765x elapsed=0:00:25.08    \nframe=  101 fps=3.9 q=55.0 size=       1KiB time=00:00:02.00 bitrate=   2.9kbits/s speed=0.0779x elapsed=0:00:25.66    \nframe=  104 fps=4.0 q=58.0 size=       1KiB time=00:00:02.06 bitrate=   2.8kbits/s speed=0.0786x elapsed=0:00:26.22    \nframe=  109 fps=4.1 q=55.0 size=       1KiB time=00:00:02.16 bitrate=   2.6kbits/s speed=0.0808x elapsed=0:00:26.73    \nframe=  113 fps=4.1 q=41.0 size=       1KiB time=00:00:02.24 bitrate=   2.5kbits/s speed=0.082x elapsed=0:00:27.30    \nframe=  117 fps=4.2 q=56.0 size=       1KiB time=00:00:02.32 bitrate=   2.5kbits/s speed=0.0833x elapsed=0:00:27.84    \nframe=  122 fps=4.3 q=59.0 size=       1KiB time=00:00:02.42 bitrate=   2.4kbits/s speed=0.0851x elapsed=0:00:28.42    \nframe=  126 fps=4.3 q=59.0 size=       1KiB time=00:00:02.50 bitrate=   2.3kbits/s speed=0.0863x elapsed=0:00:28.98    \nframe=  131 fps=4.4 q=57.0 size=       1KiB time=00:00:02.60 bitrate=   2.2kbits/s speed=0.0881x elapsed=0:00:29.51    \nframe=  135 fps=4.5 q=57.0 size=       1KiB time=00:00:02.68 bitrate=   2.1kbits/s speed=0.0892x elapsed=0:00:30.06    \nframe=  140 fps=4.6 q=58.0 size=       1KiB time=00:00:02.76 bitrate=   2.1kbits/s speed=0.0901x elapsed=0:00:30.61    \nframe=  143 fps=4.6 q=57.0 size=       1KiB time=00:00:02.84 bitrate=   2.0kbits/s speed=0.091x elapsed=0:00:31.21    \nframe=  148 fps=4.7 q=59.0 size=       1KiB time=00:00:02.92 bitrate=   2.0kbits/s speed=0.0918x elapsed=0:00:31.80    \nframe=  150 fps=4.6 q=59.0 size=       1KiB time=00:00:02.98 bitrate=   1.9kbits/s speed=0.0921x elapsed=0:00:32.35    \nframe=  157 fps=4.8 q=56.0 size=       1KiB time=00:00:03.12 bitrate=   1.8kbits/s speed=0.0947x elapsed=0:00:32.95    \nframe=  161 fps=4.8 q=42.0 size=       1KiB time=00:00:03.20 bitrate=   1.8kbits/s speed=0.0952x elapsed=0:00:33.59    \nframe=  161 fps=4.7 q=42.0 size=       1KiB time=00:00:03.20 bitrate=   1.8kbits/s speed=0.0934x elapsed=0:00:34.24    \nframe=  165 fps=4.7 q=55.0 size=       1KiB time=00:00:03.28 bitrate=   1.7kbits/s speed=0.0938x elapsed=0:00:34.95    \nframe=  169 fps=4.7 q=52.0 size=       1KiB time=00:00:03.36 bitrate=   1.7kbits/s speed=0.0943x elapsed=0:00:35.63    \nframe=  173 fps=4.8 q=55.0 size=       1KiB time=00:00:03.44 bitrate=   1.7kbits/s speed=0.095x elapsed=0:00:36.21    \nframe=  177 fps=4.8 q=43.0 size=       1KiB time=00:00:03.52 bitrate=   1.6kbits/s speed=0.0956x elapsed=0:00:36.80    \nframe=  177 fps=4.7 q=43.0 size=       1KiB time=00:00:03.52 bitrate=   1.6kbits/s speed=0.0941x elapsed=0:00:37.39    \nframe=  181 fps=4.8 q=54.0 size=       1KiB time=00:00:03.60 bitrate=   1.6kbits/s speed=0.0947x elapsed=0:00:38.00    \nframe=  185 fps=4.8 q=51.0 size=       1KiB time=00:00:03.68 bitrate=   1.6kbits/s speed=0.0953x elapsed=0:00:38.60    \nframe=  193 fps=4.9 q=43.0 size=       1KiB time=00:00:03.84 bitrate=   1.5kbits/s speed=0.0981x elapsed=0:00:39.16    \nframe=  197 fps=5.0 q=54.0 size=       1KiB time=00:00:03.92 bitrate=   1.5kbits/s speed=0.0987x elapsed=0:00:39.69    \nframe=  201 fps=5.0 q=50.0 size=       1KiB time=00:00:04.00 bitrate=   1.4kbits/s speed=0.0993x elapsed=0:00:40.26    \nframe=  205 fps=5.0 q=54.0 size=       1KiB time=00:00:04.08 bitrate=   1.4kbits/s speed= 0.1x elapsed=0:00:40.81    \nframe=  209 fps=5.1 q=42.0 size=       1KiB time=00:00:04.16 bitrate=   1.4kbits/s speed=0.101x elapsed=0:00:41.37    \nframe=  215 fps=5.1 q=55.0 size=       1KiB time=00:00:04.28 bitrate=   1.3kbits/s speed=0.102x elapsed=0:00:41.90    \nframe=  219 fps=5.2 q=55.0 size=       1KiB time=00:00:04.36 bitrate=   1.3kbits/s speed=0.103x elapsed=0:00:42.41    \nframe=  225 fps=5.2 q=42.0 size=       1KiB time=00:00:04.48 bitrate=   1.3kbits/s speed=0.104x elapsed=0:00:42.97    \nframe=  233 fps=5.4 q=50.0 size=       1KiB time=00:00:04.64 bitrate=   1.2kbits/s speed=0.107x elapsed=0:00:43.51    \nframe=  239 fps=5.4 q=57.0 size=       1KiB time=00:00:04.76 bitrate=   1.2kbits/s speed=0.108x elapsed=0:00:44.05    \n[out#0/matroska @ 000001772bd8f0c0] video:1250KiB audio:0KiB subtitle:0KiB other streams:0KiB global headers:0KiB muxing overhead: 0.148578%\nframe=  250 fps=5.7 q=57.0 Lsize=    1252KiB time=00:00:04.98 bitrate=2059.5kbits/s speed=0.113x elapsed=0:00:44.23    \n",
  "seconds": 44.78634548187256,
  "probe_out": {}
}